<?xml version="1.0" encoding="iso-8859-1"?>
<!-- Generator: Adobe Illustrator 19.0.0, SVG Export Plug-In . SVG Version: 6.00 Build 0)  -->
<svg version="1.1" id="Layer_1" xmlns="http://www.w3.org/2000/svg" xmlns:xlink="http://www.w3.org/1999/xlink" x="0px" y="0px"
	 viewBox="0 0 512 512" style="enable-background:new 0 0 512 512;" xml:space="preserve">
<g transform="translate(1 1)">
	<g>
		<g>
			<path d="M496.493,150.893l-40.96-8.533c-0.203-0.058-0.407-0.111-0.611-0.168c-0.625-0.256-1.299-0.442-2.017-0.555
				c-13.936-3.747-28.113-5.699-42.282-5.905c-0.64-0.127-1.313-0.199-2.023-0.199c-0.694,0-1.354,0.068-1.982,0.189
				c-13.397,0.115-26.766,1.783-39.896,4.97c-0.262-0.026-0.526-0.039-0.789-0.039c-2.122,0-3.945,0.594-5.36,1.646
				c-4.506,1.264-8.981,2.706-13.414,4.328c-25.6,8.533-54.613,8.533-80.213,0c-34.133-16.213-73.387-14.507-106.667,5.973
				l-2.56,0.853c-3.413,1.707-5.12,4.267-5.12,7.68h-17.067v-17.067c0-14.507-11.093-25.6-25.6-25.6H24.6
				c-14.507,0-25.6,11.093-25.6,25.6v76.8c0,2.56,0.853,4.267,2.56,5.973l25.6,25.6c1.707,1.707,3.413,2.56,5.973,2.56v17.067
				c0,9.387,7.68,17.067,17.067,17.067h34.133c9.387,0,17.067-7.68,17.067-17.067V255c2.56,0,4.267-0.853,5.973-2.56l25.6-25.6
				c1.707-1.707,2.56-3.413,2.56-5.973v-8.533H152.6c0,3.413,1.707,6.827,4.267,8.533l2.56,0.853
				c34.987,18.773,73.387,21.333,106.667,5.973c25.6-9.387,53.76-9.387,80.213,0c19.627,6.827,40.96,10.24,61.44,10.24
				c15.36,0,30.72-1.707,46.933-5.973l41.813-8.533c8.533-2.56,14.507-11.093,14.507-21.333v-30.72
				C511,161.133,505.027,153.453,496.493,150.893z M84.333,272.067H50.2V255h34.133V272.067z M118.467,217.453l-20.48,20.48h-5.12
				h-51.2h-5.12l-20.48-20.48V203.8H50.2c5.12,0,8.533-3.413,8.533-8.533s-3.413-8.533-8.533-8.533H16.067v-17.067h51.2
				c5.12,0,8.533-3.413,8.533-8.533c0-5.12-3.413-8.533-8.533-8.533h-51.2v-8.533c0-5.12,3.413-8.533,8.533-8.533h85.333
				c5.12,0,8.533,3.413,8.533,8.533v25.6V203.8V217.453z M135.533,195.267V178.2H152.6v17.067H135.533z M493.933,202.093
				c0,2.56,0,4.267-1.707,5.12l-41.813,8.533c-32.427,7.68-66.56,6.827-98.133-4.267c-15.36-5.12-30.72-7.68-46.08-7.68
				s-31.573,2.56-46.933,7.68c-28.16,13.653-60.587,11.947-89.6-4.267V203.8v-34.133v-3.413c29.013-16.213,61.44-17.92,90.453-4.267
				c0,0.853,0.853,0.853,0.853,0.853c17.139,5.545,35.47,7.787,53.76,6.781v8.579c0,5.12,3.413,8.533,8.533,8.533
				s8.533-3.413,8.533-8.533v-10.477c6.91-1.162,13.761-2.772,20.48-4.883c1.701-0.644,3.409-1.252,5.12-1.836v8.663
				c0,5.12,4.267,8.533,8.533,8.533c5.12,0,8.533-4.267,8.533-8.533v-13.46c8.454-1.875,16.997-3.036,25.6-3.464v8.391
				c0,5.12,3.413,8.533,8.533,8.533s8.533-3.413,8.533-8.533v-8.278c8.505,0.533,17.048,1.781,25.6,3.756v13.055
				c0,5.12,3.413,8.533,8.533,8.533c5.12,0,8.533-3.413,8.533-8.533v-9.138l31.573,6.578c2.56,0,2.56,2.56,2.56,4.267V202.093z"/>
			<path d="M60.44,324.973c-3.413-3.413-8.533-3.413-11.947,0l-15.36,15.36c-5.12,5.973-8.533,13.653-8.533,21.333
				c0,8.533,2.56,15.36,8.533,21.333c5.973,5.12,13.653,8.533,21.333,8.533S69.827,388.12,75.8,383
				c5.12-5.973,8.533-13.653,8.533-21.333c0-8.533-2.56-15.36-8.533-21.333L60.44,324.973z M63,371.053
				c-4.267,5.12-12.8,5.12-17.92,0c-1.707-2.56-3.413-5.973-3.413-9.387s1.707-6.827,3.413-8.533l9.387-9.387l9.387,8.533
				c1.707,2.56,3.413,5.973,3.413,9.387S65.56,368.493,63,371.053z"/>
		</g>
	</g>
</g>
<g>
</g>
<g>
</g>
<g>
</g>
<g>
</g>
<g>
</g>
<g>
</g>
<g>
</g>
<g>
</g>
<g>
</g>
<g>
</g>
<g>
</g>
<g>
</g>
<g>
</g>
<g>
</g>
<g>
</g>
</svg>
