<?xml version="1.0" encoding="iso-8859-1"?>
<!-- Generator: Adobe Illustrator 19.0.0, SVG Export Plug-In . SVG Version: 6.00 Build 0)  -->
<svg version="1.1" id="Layer_1" xmlns="http://www.w3.org/2000/svg" xmlns:xlink="http://www.w3.org/1999/xlink" x="0px" y="0px"
	 viewBox="0 0 512 512" style="enable-background:new 0 0 512 512;" xml:space="preserve">
<g transform="translate(1 1)">
	<g>
		<g>
			<path d="M412.867,459.8h-25.6V289.133h4.267c6.827,0,12.8-5.973,12.8-12.8v-25.6c0-6.827-5.973-12.8-12.8-12.8h-86.647
				c22.453-15.816,37.573-41.257,39.498-70.456c5.207-2.931,8.749-8.507,8.749-14.877v-17.067c0-9.387-7.68-17.067-17.067-17.067
				h-76.8V101.4H395.8c5.12,0,8.533-3.413,8.533-8.533V66.179c14.679-3.814,25.6-17.216,25.6-33.046
				C429.933,14.36,414.573-1,395.8-1c-18.773,0-34.133,15.36-34.133,34.133c0,15.829,10.921,29.232,25.6,33.046v18.154H250.733
				c-5.12,0-8.533,3.413-8.533,8.533v25.6h-76.8c-9.387,0-17.067,7.68-17.067,17.067V152.6c0,6.37,3.542,11.946,8.749,14.877
				c1.926,29.199,17.045,54.641,39.498,70.456h-86.647c-6.827,0-12.8,5.973-12.8,12.8v25.6c0,6.827,5.973,12.8,12.8,12.8h4.267
				V459.8H88.6c-5.12,0-8.533,3.413-8.533,8.533v34.133c0,5.12,3.413,8.533,8.533,8.533h324.267c5.12,0,8.533-3.413,8.533-8.533
				v-34.133C421.4,463.213,417.987,459.8,412.867,459.8z M378.733,33.133c0-9.387,7.68-17.067,17.067-17.067
				s17.067,7.68,17.067,17.067c0,9.387-7.68,17.067-17.067,17.067S378.733,42.52,378.733,33.133z M165.4,135.533h170.667V152.6
				H165.4V135.533z M174.787,169.667H326.68c-4.267,38.4-36.693,68.267-75.947,68.267S179.053,208.067,174.787,169.667z M114.2,255
				h273.067v17.067H114.2V255z M131.267,289.133H370.2V459.8H131.267V289.133z M404.333,493.933h-307.2v-17.067H114.2h273.067
				h17.067V493.933z"/>
			<path d="M327.533,357.4h-153.6c-5.12,0-8.533,3.413-8.533,8.533V434.2c0,5.12,3.413,8.533,8.533,8.533h153.6
				c5.12,0,8.533-3.413,8.533-8.533v-68.267C336.067,360.813,332.653,357.4,327.533,357.4z M319,425.667H182.467v-51.2H319V425.667z
				"/>
			<path d="M208.067,408.6H293.4c5.12,0,8.533-3.413,8.533-8.533c0-5.12-3.413-8.533-8.533-8.533h-85.333
				c-5.12,0-8.533,3.413-8.533,8.533C199.533,405.187,202.947,408.6,208.067,408.6z"/>
		</g>
	</g>
</g>
<g>
</g>
<g>
</g>
<g>
</g>
<g>
</g>
<g>
</g>
<g>
</g>
<g>
</g>
<g>
</g>
<g>
</g>
<g>
</g>
<g>
</g>
<g>
</g>
<g>
</g>
<g>
</g>
<g>
</g>
</svg>
