<?xml version="1.0" standalone="no"?>
<!DOCTYPE svg PUBLIC "-//W3C//DTD SVG 20010904//EN"
 "http://www.w3.org/TR/2001/REC-SVG-20010904/DTD/svg10.dtd">
<svg version="1.0" xmlns="http://www.w3.org/2000/svg"
 width="78.000000pt" height="78.000000pt" viewBox="0 0 78.000000 78.000000"
 preserveAspectRatio="xMidYMid meet">

<g transform="translate(0.000000,78.000000) scale(0.100000,-0.100000)"
fill="#000000" stroke="none">
<path d="M530 634 c-31 -29 -50 -55 -50 -69 0 -28 -32 -59 -46 -45 -7 7 -20 6
-40 -5 -16 -8 -22 -15 -13 -15 8 0 20 5 27 12 9 9 16 7 32 -7 l20 -18 -27 -31
-28 -31 33 30 c33 29 34 29 48 11 8 -11 14 -15 14 -9 0 7 -5 15 -11 18 -14 9
18 45 40 45 9 0 37 21 61 48 l45 47 -45 -42 c-25 -24 -53 -43 -61 -43 -20 0
-39 20 -39 41 0 17 82 99 99 99 5 0 19 -12 30 -26 12 -15 21 -22 21 -15 0 14
-36 51 -50 51 -6 0 -33 -21 -60 -46z m-42 -130 c-24 -24 -44 -7 -22 17 12 13
21 16 28 9 7 -7 5 -15 -6 -26z"/>
<path d="M295 540 c10 -11 20 -20 23 -20 3 0 -3 9 -13 20 -10 11 -20 20 -23
20 -3 0 3 -9 13 -20z"/>
<path d="M342 488 c-7 -7 -12 -19 -12 -28 0 -9 -6 -22 -12 -28 -10 -10 -10
-17 -1 -32 11 -17 9 -19 -25 -23 -34 -3 -34 -4 9 -5 31 -1 49 -7 53 -17 3 -8
14 -15 24 -15 11 0 25 7 32 15 7 9 31 16 59 16 l46 2 -40 6 -40 6 29 23 c16
12 27 24 24 27 -2 2 -24 -16 -48 -40 -24 -25 -51 -45 -60 -44 -8 0 -26 14 -39
30 -25 32 -25 33 10 102 11 20 8 22 -9 5z"/>
<path d="M253 453 c9 -2 25 -2 35 0 9 3 1 5 -18 5 -19 0 -27 -2 -17 -5z"/>
<path d="M220 409 c0 -5 5 -7 10 -4 6 3 10 8 10 11 0 2 -4 4 -10 4 -5 0 -10
-5 -10 -11z"/>
<path d="M530 416 c0 -2 7 -9 15 -16 13 -11 14 -10 9 4 -5 14 -24 23 -24 12z"/>
<path d="M164 365 c-11 -27 4 -45 36 -45 27 0 30 3 30 30 0 27 -3 30 -30 30
-18 0 -33 -6 -36 -15z m56 -15 c0 -15 -7 -20 -25 -20 -18 0 -25 5 -25 20 0 15
7 20 25 20 18 0 25 -5 25 -20z"/>
<path d="M547 374 c-4 -4 -7 -20 -7 -34 0 -26 2 -27 33 -21 26 6 32 12 32 31
0 19 -6 26 -25 28 -14 2 -29 0 -33 -4z m53 -24 c0 -15 -7 -20 -25 -20 -18 0
-25 5 -25 20 0 15 7 20 25 20 18 0 25 -5 25 -20z"/>
<path d="M328 323 c34 -2 88 -2 120 0 31 2 3 3 -63 3 -66 0 -92 -1 -57 -3z"/>
<path d="M232 280 c0 -19 2 -27 5 -17 2 9 2 25 0 35 -3 9 -5 1 -5 -18z"/>
<path d="M532 275 c0 -16 2 -22 5 -12 2 9 2 23 0 30 -3 6 -5 -1 -5 -18z"/>
<path d="M472 240 c0 -19 2 -27 5 -17 2 9 2 25 0 35 -3 9 -5 1 -5 -18z"/>
<path d="M242 210 c0 -19 2 -27 5 -17 2 9 2 25 0 35 -3 9 -5 1 -5 -18z"/>
<path d="M522 205 c0 -16 2 -22 5 -12 2 9 2 23 0 30 -3 6 -5 -1 -5 -18z"/>
<path d="M461 174 c0 -11 3 -14 6 -6 3 7 2 16 -1 19 -3 4 -6 -2 -5 -13z"/>
<path d="M251 159 c-1 -17 29 -49 45 -49 5 0 1 5 -9 11 -10 6 -22 20 -27 32
-6 15 -9 17 -9 6z"/>
<path d="M499 136 c-14 -18 -30 -22 -105 -27 l-89 -6 82 -1 c74 -2 85 0 110
22 15 13 26 26 23 29 -3 3 -12 -5 -21 -17z"/>
</g>
</svg>
