<?xml version="1.0" standalone="no"?>
<!DOCTYPE svg PUBLIC "-//W3C//DTD SVG 20010904//EN"
 "http://www.w3.org/TR/2001/REC-SVG-20010904/DTD/svg10.dtd">
<svg version="1.0" xmlns="http://www.w3.org/2000/svg"
 width="100.000000pt" height="100.000000pt" viewBox="0 0 100.000000 100.000000"
 preserveAspectRatio="xMidYMid meet">

<g transform="translate(0.000000,100.000000) scale(0.100000,-0.100000)"
fill="#000000" stroke="none">
<path d="M360 860 c-11 -33 -11 -47 0 -80 15 -45 36 -56 25 -12 -4 15 -7 38
-7 52 0 14 3 37 7 53 11 43 -10 32 -25 -13z"/>
<path d="M520 860 c-11 -33 -11 -47 0 -80 15 -45 36 -56 25 -12 -4 15 -7 38
-7 52 0 14 3 37 7 53 11 43 -10 32 -25 -13z"/>
<path d="M434 844 c-4 -14 -1 -43 6 -65 15 -44 36 -54 25 -11 -4 15 -8 44 -8
65 -1 43 -14 49 -23 11z"/>
<path d="M594 844 c-4 -14 -1 -43 6 -65 15 -44 36 -54 25 -11 -4 15 -8 44 -8
65 -1 43 -14 49 -23 11z"/>
<path d="M187 663 c-10 -9 -9 -78 3 -146 11 -70 48 -154 91 -208 l31 -39 -76
0 c-41 0 -78 -5 -81 -10 -10 -16 21 -58 58 -80 29 -18 52 -20 267 -20 215 0
238 2 267 20 37 22 68 64 58 80 -3 5 -40 10 -81 10 l-74 0 37 50 c23 31 45 50
58 50 33 0 123 58 140 90 35 67 3 125 -66 118 l-38 -3 -3 45 -3 45 -291 3
c-160 1 -293 -1 -297 -5z m573 -45 c0 -116 -42 -237 -105 -307 l-37 -41 -138
0 -138 0 -37 41 c-64 72 -105 188 -105 302 l0 37 280 0 280 0 0 -32z m104 -74
c37 -37 6 -98 -67 -133 -62 -30 -66 -28 -46 32 10 28 18 64 19 79 0 17 6 28
18 31 35 9 61 7 76 -9z m-90 -315 c-42 -46 -60 -49 -304 -49 l-230 0 -38 35
-37 34 314 1 314 0 -19 -21z"/>
<path d="M230 581 c0 -22 3 -42 8 -45 4 -2 6 13 4 34 -3 34 -1 39 20 43 21 4
20 4 -4 6 -26 1 -28 -2 -28 -38z"/>
<path d="M308 613 c6 -2 18 -2 25 0 6 3 1 5 -13 5 -14 0 -19 -2 -12 -5z"/>
<path d="M383 613 c15 -2 37 -2 50 0 12 2 0 4 -28 4 -27 0 -38 -2 -22 -4z"/>
<path d="M245 478 c4 -13 11 -27 16 -33 5 -5 4 5 -2 23 -12 36 -24 44 -14 10z"/>
</g>
</svg>
