<?xml version="1.0" standalone="no"?>
<!DOCTYPE svg PUBLIC "-//W3C//DTD SVG 20010904//EN"
 "http://www.w3.org/TR/2001/REC-SVG-20010904/DTD/svg10.dtd">
<svg version="1.0" xmlns="http://www.w3.org/2000/svg"
 width="78.000000pt" height="78.000000pt" viewBox="0 0 78.000000 78.000000"
 preserveAspectRatio="xMidYMid meet">

<g transform="translate(0.000000,78.000000) scale(0.100000,-0.100000)"
fill="#000000" stroke="none">
<path d="M490 660 c-11 -11 -19 -30 -19 -42 1 -21 2 -21 6 -3 14 55 78 75 107
33 9 -12 16 -18 16 -12 0 19 -36 44 -63 44 -15 0 -36 -9 -47 -20z"/>
<path d="M551 633 c7 -12 15 -20 18 -17 3 2 -3 12 -13 22 -17 16 -18 16 -5 -5z"/>
<path d="M581 579 c-7 -12 -10 -23 -8 -26 3 -3 11 5 17 17 15 28 8 35 -9 9z"/>
<path d="M487 546 c5 -43 3 -50 -28 -82 -18 -19 -38 -34 -45 -34 -7 0 -14 -25
-18 -60 -7 -57 -8 -60 -34 -60 -16 0 -32 8 -40 20 -11 18 -23 20 -120 20 -71
0 -112 -4 -120 -12 -13 -13 -17 -114 -4 -121 4 -3 7 23 7 56 l0 62 115 0 115
0 3 -54 c2 -37 -1 -57 -10 -62 -11 -7 -11 -9 0 -9 8 0 16 9 19 20 4 15 14 20
39 20 29 0 34 -4 34 -23 0 -29 18 -47 46 -47 12 0 33 -9 47 -20 32 -26 69 -26
92 0 10 11 31 20 46 20 15 0 30 3 32 8 3 4 -52 7 -121 7 l-127 0 -3 38 -3 37
130 0 130 0 4 -32 c3 -31 4 -30 5 7 l2 40 -137 0 -138 0 -3 38 c-2 20 1 37 6
37 5 0 7 14 4 30 l-4 30 132 0 132 0 -4 -30 c-3 -17 -1 -33 4 -36 4 -3 8 -17
8 -31 0 -15 2 -24 5 -21 3 3 2 31 -1 62 -6 46 -11 59 -29 66 -11 4 -33 23 -47
42 -23 30 -30 33 -67 30 -41 -4 -41 -4 -41 29 0 19 -4 40 -9 48 -5 8 -7 -4 -4
-33z m121 -87 l24 -29 -92 0 -91 0 21 30 c19 26 27 30 68 29 40 0 51 -5 70
-30z m-210 -181 c3 -15 -4 -18 -32 -18 -30 0 -36 4 -36 21 0 17 5 20 32 17 22
-2 34 -9 36 -20z m182 -113 c-7 -8 -25 -15 -40 -15 -15 0 -33 7 -40 15 -11 13
-5 15 40 15 45 0 51 -2 40 -15z"/>
<path d="M498 323 c23 -2 59 -2 80 0 20 2 1 4 -43 4 -44 0 -61 -2 -37 -4z"/>
<path d="M157 253 c24 -2 62 -2 85 0 24 2 5 4 -42 4 -47 0 -66 -2 -43 -4z"/>
</g>
</svg>
