<?xml version="1.0" standalone="no"?>
<!DOCTYPE svg PUBLIC "-//W3C//DTD SVG 20010904//EN"
 "http://www.w3.org/TR/2001/REC-SVG-20010904/DTD/svg10.dtd">
<svg version="1.0" xmlns="http://www.w3.org/2000/svg"
 width="64.000000pt" height="64.000000pt" viewBox="0 0 64.000000 64.000000"
 preserveAspectRatio="xMidYMid meet">

<g transform="translate(0.000000,64.000000) scale(0.100000,-0.100000)"
fill="#000000" stroke="none">
<path d="M20 320 l0 -300 260 0 260 0 0 50 0 50 -86 0 c-68 0 -84 3 -76 13 9
11 16 46 13 75 -1 8 -25 12 -86 12 l-85 0 0 -31 c0 -17 5 -39 10 -50 10 -17 7
-19 -25 -19 l-35 0 0 185 0 185 25 0 c23 0 25 -4 25 -45 0 -34 4 -47 18 -52 9
-4 21 -11 25 -17 6 -8 10 -7 14 2 2 6 13 12 23 12 10 0 21 -6 24 -12 5 -10 7
-10 12 0 3 6 14 12 24 12 9 0 23 7 30 15 7 8 20 15 30 15 10 0 23 -7 30 -15
13 -15 93 -21 137 -9 27 7 39 40 23 59 -18 21 -156 21 -164 0 -3 -8 -15 -15
-26 -15 -15 0 -20 7 -20 25 0 23 3 24 68 27 l67 3 3 63 3 62 -261 0 -260 0 0
-300z m500 235 l0 -35 -185 0 -185 0 2 -212 3 -213 183 -3 c174 -2 182 -3 182
-22 0 -19 -8 -20 -235 -20 l-235 0 0 144 c0 119 3 145 15 150 8 3 15 10 15 16
0 5 -7 10 -15 10 -8 0 -15 4 -15 9 0 5 7 11 15 15 8 3 15 10 15 16 0 5 -7 10
-15 10 -19 0 -19 16 0 24 19 7 19 26 0 26 -19 0 -19 16 0 24 8 3 15 10 15 16
0 5 -7 10 -15 10 -8 0 -15 4 -15 9 0 5 7 11 15 15 8 3 15 10 15 16 0 5 -7 10
-15 10 -8 0 -15 5 -15 10 0 6 85 10 235 10 l235 0 0 -35z m-150 -75 c0 -6 -27
-10 -60 -10 -33 0 -60 4 -60 10 0 6 27 10 60 10 33 0 60 -4 60 -10z m0 -50 c0
-6 -27 -10 -60 -10 -33 0 -60 4 -60 10 0 6 27 10 60 10 33 0 60 -4 60 -10z
m220 0 c0 -6 -27 -10 -60 -10 -33 0 -60 4 -60 10 0 6 27 10 60 10 33 0 60 -4
60 -10z m-220 -255 c0 -22 -37 -55 -62 -55 -27 0 -58 27 -58 52 0 15 8 18 60
18 47 0 60 -3 60 -15z"/>
<path d="M370 560 c0 -5 5 -10 10 -10 6 0 10 5 10 10 0 6 -4 10 -10 10 -5 0
-10 -4 -10 -10z"/>
<path d="M420 560 c0 -5 5 -10 10 -10 6 0 10 5 10 10 0 6 -4 10 -10 10 -5 0
-10 -4 -10 -10z"/>
<path d="M470 560 c0 -5 5 -10 10 -10 6 0 10 5 10 10 0 6 -4 10 -10 10 -5 0
-10 -4 -10 -10z"/>
<path d="M260 340 c0 -11 5 -20 10 -20 6 0 10 9 10 20 0 11 -4 20 -10 20 -5 0
-10 -9 -10 -20z"/>
<path d="M325 347 c-4 -10 -5 -21 -1 -24 10 -10 18 4 13 24 -4 17 -4 17 -12 0z"/>
<path d="M260 290 c0 -11 5 -20 10 -20 6 0 10 9 10 20 0 11 -4 20 -10 20 -5 0
-10 -9 -10 -20z"/>
<path d="M325 297 c-4 -10 -5 -21 -1 -24 10 -10 18 4 13 24 -4 17 -4 17 -12 0z"/>
</g>
</svg>
