<?xml version="1.0" standalone="no"?>
<!DOCTYPE svg PUBLIC "-//W3C//DTD SVG 20010904//EN"
 "http://www.w3.org/TR/2001/REC-SVG-20010904/DTD/svg10.dtd">
<svg version="1.0" xmlns="http://www.w3.org/2000/svg"
 width="78.000000pt" height="78.000000pt" viewBox="0 0 78.000000 78.000000"
 preserveAspectRatio="xMidYMid meet">

<g transform="translate(0.000000,78.000000) scale(0.100000,-0.100000)"
fill="#000000" stroke="none">
<path d="M288 643 c56 -2 148 -2 205 0 56 1 10 3 -103 3 -113 0 -159 -2 -102
-3z"/>
<path d="M159 623 c-13 -16 -12 -17 4 -4 9 7 17 15 17 17 0 8 -8 3 -21 -13z"/>
<path d="M600 636 c0 -2 8 -10 18 -17 15 -13 16 -12 3 4 -13 16 -21 21 -21 13z"/>
<path d="M425 618 c6 -16 -61 -85 -72 -75 -3 4 9 24 28 45 32 35 32 35 3 9
-23 -21 -33 -25 -37 -15 -3 7 -4 0 -3 -17 1 -26 6 -30 32 -33 20 -2 35 3 44
15 12 15 12 16 0 6 -8 -7 -21 -13 -29 -13 -10 0 -8 7 9 25 16 17 26 21 31 14
3 -6 7 1 7 15 0 15 -4 29 -9 32 -5 3 -6 -1 -4 -8z"/>
<path d="M355 610 c-3 -6 1 -7 9 -4 18 7 21 14 7 14 -6 0 -13 -4 -16 -10z"/>
<path d="M141 568 c-1 -28 4 -41 21 -52 12 -9 27 -16 33 -16 5 1 -1 7 -15 14
-17 10 -27 26 -31 53 l-6 38 -2 -37z"/>
<path d="M184 589 c-10 -17 23 -46 37 -32 8 8 6 11 -7 10 -12 -1 -19 4 -18 16
2 20 -2 22 -12 6z"/>
<path d="M215 590 c3 -5 8 -10 11 -10 2 0 4 5 4 10 0 6 -5 10 -11 10 -5 0 -7
-4 -4 -10z"/>
<path d="M632 568 c-2 -30 -8 -40 -29 -52 -16 -8 -23 -15 -17 -16 7 0 22 8 34
18 17 13 21 25 17 52 l-4 35 -1 -37z"/>
<path d="M272 565 c15 -16 20 -17 30 -6 11 11 10 13 0 7 -7 -4 -21 -2 -30 5
-15 12 -15 11 0 -6z"/>
<path d="M512 565 c15 -16 20 -17 30 -6 11 11 10 13 0 7 -7 -4 -21 -2 -30 5
-15 12 -15 11 0 -6z"/>
<path d="M231 489 c0 -15 7 -33 17 -40 15 -12 16 -12 5 1 -6 8 -13 26 -16 40
l-4 25 -2 -26z"/>
<path d="M541 490 c0 -15 -4 -30 -8 -36 -5 -5 -2 -4 5 2 8 6 12 22 9 35 -4 24
-4 24 -6 -1z"/>
<path d="M360 421 c0 -28 26 -47 45 -31 16 13 21 50 7 50 -5 0 -8 -10 -8 -22
1 -14 -5 -23 -14 -23 -9 0 -15 9 -14 23 0 12 -3 22 -8 22 -4 0 -8 -8 -8 -19z"/>
<path d="M310 363 c0 -5 28 -7 62 -5 107 5 117 9 26 11 -49 0 -88 -2 -88 -6z"/>
<path d="M280 346 c0 -2 7 -7 16 -10 8 -3 12 -2 9 4 -6 10 -25 14 -25 6z"/>
<path d="M260 306 c0 -1 18 -17 41 -35 24 -20 36 -26 29 -14 -10 16 -70 58
-70 49z"/>
<path d="M461 257 c-13 -21 -12 -21 5 -5 10 10 16 20 13 22 -3 3 -11 -5 -18
-17z"/>
<path d="M373 233 c15 -2 37 -2 50 0 12 2 0 4 -28 4 -27 0 -38 -2 -22 -4z"/>
<path d="M147 204 c-13 -13 -7 -41 11 -57 16 -15 48 -17 234 -17 199 0 216 1
232 19 10 11 16 28 14 38 -3 17 -20 18 -244 21 -132 1 -243 -1 -247 -4z m483
-22 c0 -39 -16 -42 -240 -42 -224 0 -240 3 -240 42 0 17 16 18 240 18 224 0
240 -1 240 -18z"/>
</g>
</svg>
