<?xml version="1.0" standalone="no"?>
<!DOCTYPE svg PUBLIC "-//W3C//DTD SVG 20010904//EN"
 "http://www.w3.org/TR/2001/REC-SVG-20010904/DTD/svg10.dtd">
<svg version="1.0" xmlns="http://www.w3.org/2000/svg"
 width="50.000000pt" height="50.000000pt" viewBox="0 0 50.000000 50.000000"
 preserveAspectRatio="xMidYMid meet">

<g transform="translate(0.000000,50.000000) scale(0.100000,-0.100000)"
fill="#000000" stroke="none">
<path d="M64 370 c6 -50 24 -129 53 -233 5 -15 -2 -17 -47 -17 -60 0 -62 -12
-10 -47 30 -21 45 -23 165 -23 120 0 135 2 165 23 52 35 50 47 -9 47 -34 0
-51 4 -51 13 0 22 14 34 68 57 57 25 82 51 82 87 0 35 -36 66 -70 61 l-29 -4
6 48 6 48 -168 0 -168 0 7 -60z m300 -7 c-8 -55 -37 -175 -53 -216 -10 -26
-13 -27 -86 -27 -73 0 -76 1 -86 28 -16 40 -46 161 -54 215 l-7 47 146 0 147
0 -7 -47z m89 -65 c17 -27 -8 -67 -55 -88 -24 -10 -44 -17 -46 -16 -8 8 22
102 37 114 20 16 51 12 64 -10z m-77 -213 c-28 -21 -274 -21 -302 0 -17 13 -1
14 151 14 152 0 168 -1 151 -14z"/>
</g>
</svg>
